<?xml version="1.0" encoding="us-ascii" standalone="no"?><svg xmlns="http://www.w3.org/2000/svg" xmlns:xlink="http://www.w3.org/1999/xlink" contentStyleType="text/css" height="463px" preserveAspectRatio="none" style="width:2950px;height:463px;background:#FFFFFF;" version="1.1" viewBox="0 0 2950 463" width="2950px" zoomAndPan="magnify"><defs/><g><!--class AlogSystematicStrategie--><g id="elem_AlogSystematicStrategie"><rect codeLine="3" fill="#F1F1F1" height="210.9688" id="AlogSystematicStrategie" rx="2.5" ry="2.5" style="stroke:#181818;stroke-width:0.5;" width="525" x="7.5" y="7"/><ellipse cx="182.25" cy="23" fill="#ADD1B2" rx="11" ry="11" style="stroke:#181818;stroke-width:1.0;"/><path d="M185.2188,28.6406 Q184.6406,28.9375 184,29.0781 Q183.3594,29.2344 182.6563,29.2344 Q180.1563,29.2344 178.8281,27.5938 Q177.5156,25.9375 177.5156,22.8125 Q177.5156,19.6875 178.8281,18.0313 Q180.1563,16.375 182.6563,16.375 Q183.3594,16.375 184,16.5313 Q184.6563,16.6875 185.2188,16.9844 L185.2188,19.7031 Q184.5938,19.125 184,18.8594 Q183.4063,18.5781 182.7813,18.5781 Q181.4375,18.5781 180.75,19.6563 Q180.0625,20.7188 180.0625,22.8125 Q180.0625,24.9063 180.75,25.9844 Q181.4375,27.0469 182.7813,27.0469 Q183.4063,27.0469 184,26.7813 Q184.5938,26.5 185.2188,25.9219 L185.2188,28.6406 Z " fill="#000000"/><text fill="#000000" font-family="sans-serif" font-size="14" lengthAdjust="spacing" textLength="167" x="202.75" y="27.8467">AlogSystematicStrategie</text><line style="stroke:#181818;stroke-width:0.5;" x1="8.5" x2="531.5" y1="39" y2="39"/><ellipse cx="18.5" cy="52.6484" fill="none" rx="3" ry="3" style="stroke:#038048;stroke-width:1.0;"/><text fill="#000000" font-family="sans-serif" font-size="14" lengthAdjust="spacing" textLength="268" x="27.5" y="55.9951">BasketTestParameters testParameters</text><ellipse cx="18.5" cy="68.9453" fill="none" rx="3" ry="3" style="stroke:#038048;stroke-width:1.0;"/><text fill="#000000" font-family="sans-serif" font-size="14" lengthAdjust="spacing" textLength="85" x="27.5" y="72.292">DateTime t0</text><ellipse cx="18.5" cy="85.2422" fill="none" rx="3" ry="3" style="stroke:#038048;stroke-width:1.0;"/><text fill="#000000" font-family="sans-serif" font-size="14" lengthAdjust="spacing" textLength="82" x="27.5" y="88.5889">Pricer pricer</text><ellipse cx="18.5" cy="101.5391" fill="none" rx="3" ry="3" style="stroke:#038048;stroke-width:1.0;"/><text fill="#000000" font-family="sans-serif" font-size="14" lengthAdjust="spacing" textLength="205" x="27.5" y="104.8857">Portfoilio : PortfolioCouverture</text><ellipse cx="18.5" cy="117.8359" fill="none" rx="3" ry="3" style="stroke:#038048;stroke-width:1.0;"/><text fill="#000000" font-family="sans-serif" font-size="14" lengthAdjust="spacing" textLength="248" x="27.5" y="121.1826">DetectRebalacing detectRebalacing</text><ellipse cx="18.5" cy="134.1328" fill="none" rx="3" ry="3" style="stroke:#038048;stroke-width:1.0;"/><text fill="#000000" font-family="sans-serif" font-size="14" lengthAdjust="spacing" textLength="297" x="27.5" y="137.4795">historiquesOutputData : List&lt;OutputData&gt;</text><ellipse cx="18.5" cy="150.4297" fill="none" rx="3" ry="3" style="stroke:#038048;stroke-width:1.0;"/><text fill="#000000" font-family="sans-serif" font-size="14" lengthAdjust="spacing" textLength="455" x="27.5" y="153.7764">String[] chemins // 0 : testParams.json , 1:data.csv , 2. output.json</text><line style="stroke:#181818;stroke-width:0.5;" x1="8.5" x2="531.5" y1="161.0781" y2="161.0781"/><ellipse cx="18.5" cy="174.7266" fill="#84BE84" rx="3" ry="3" style="stroke:#038048;stroke-width:1.0;"/><text fill="#000000" font-family="sans-serif" font-size="14" lengthAdjust="spacing" textLength="262" x="27.5" y="178.0732">AlogSystematicStrategie(chemins , t0)</text><ellipse cx="18.5" cy="191.0234" fill="#84BE84" rx="3" ry="3" style="stroke:#038048;stroke-width:1.0;"/><text fill="#000000" font-family="sans-serif" font-size="14" lengthAdjust="spacing" textLength="270" x="27.5" y="194.3701">void ExecuterAlogSystematicStrategie()</text><ellipse cx="18.5" cy="207.3203" fill="#84BE84" rx="3" ry="3" style="stroke:#038048;stroke-width:1.0;"/><text fill="#000000" font-family="sans-serif" font-size="14" lengthAdjust="spacing" textLength="499" x="27.5" y="210.667">void AddToHistorique(PricingResults res , double value , DateTime date )</text></g><!--class OutputData--><g id="elem_OutputData"><rect codeLine="59" fill="#F1F1F1" height="145.7813" id="OutputData" rx="2.5" ry="2.5" style="stroke:#181818;stroke-width:0.5;" width="184" x="7" y="294"/><ellipse cx="54.75" cy="310" fill="#ADD1B2" rx="11" ry="11" style="stroke:#181818;stroke-width:1.0;"/><path d="M57.7188,315.6406 Q57.1406,315.9375 56.5,316.0781 Q55.8594,316.2344 55.1563,316.2344 Q52.6563,316.2344 51.3281,314.5938 Q50.0156,312.9375 50.0156,309.8125 Q50.0156,306.6875 51.3281,305.0313 Q52.6563,303.375 55.1563,303.375 Q55.8594,303.375 56.5,303.5313 Q57.1563,303.6875 57.7188,303.9844 L57.7188,306.7031 Q57.0938,306.125 56.5,305.8594 Q55.9063,305.5781 55.2813,305.5781 Q53.9375,305.5781 53.25,306.6563 Q52.5625,307.7188 52.5625,309.8125 Q52.5625,311.9063 53.25,312.9844 Q53.9375,314.0469 55.2813,314.0469 Q55.9063,314.0469 56.5,313.7813 Q57.0938,313.5 57.7188,312.9219 L57.7188,315.6406 Z " fill="#000000"/><text fill="#000000" font-family="sans-serif" font-size="14" lengthAdjust="spacing" textLength="80" x="75.25" y="314.8467">OutputData</text><line style="stroke:#181818;stroke-width:0.5;" x1="8" x2="190" y1="326" y2="326"/><ellipse cx="18" cy="339.6484" fill="none" rx="3" ry="3" style="stroke:#038048;stroke-width:1.0;"/><text fill="#000000" font-family="sans-serif" font-size="14" lengthAdjust="spacing" textLength="104" x="27" y="342.9951">DateTime Date</text><ellipse cx="18" cy="355.9453" fill="none" rx="3" ry="3" style="stroke:#038048;stroke-width:1.0;"/><text fill="#000000" font-family="sans-serif" font-size="14" lengthAdjust="spacing" textLength="90" x="27" y="359.292">double Value</text><ellipse cx="18" cy="372.2422" fill="none" rx="3" ry="3" style="stroke:#038048;stroke-width:1.0;"/><text fill="#000000" font-family="sans-serif" font-size="14" lengthAdjust="spacing" textLength="108" x="27" y="375.5889">Double[] Deltas</text><ellipse cx="18" cy="388.5391" fill="none" rx="3" ry="3" style="stroke:#038048;stroke-width:1.0;"/><text fill="#000000" font-family="sans-serif" font-size="14" lengthAdjust="spacing" textLength="158" x="27" y="391.8857">Double[] DeltasStdDev</text><ellipse cx="18" cy="404.8359" fill="none" rx="3" ry="3" style="stroke:#038048;stroke-width:1.0;"/><text fill="#000000" font-family="sans-serif" font-size="14" lengthAdjust="spacing" textLength="86" x="27" y="408.1826">double Price</text><ellipse cx="18" cy="421.1328" fill="none" rx="3" ry="3" style="stroke:#038048;stroke-width:1.0;"/><text fill="#000000" font-family="sans-serif" font-size="14" lengthAdjust="spacing" textLength="136" x="27" y="424.4795">double PriceStdDev</text><line style="stroke:#181818;stroke-width:0.5;" x1="8" x2="190" y1="431.7813" y2="431.7813"/></g><!--class PortfolioCouverture--><g id="elem_PortfolioCouverture"><rect codeLine="21" fill="#F1F1F1" height="145.7813" id="PortfolioCouverture" rx="2.5" ry="2.5" style="stroke:#181818;stroke-width:0.5;" width="429" x="226.5" y="294"/><ellipse cx="370.25" cy="310" fill="#ADD1B2" rx="11" ry="11" style="stroke:#181818;stroke-width:1.0;"/><path d="M373.2188,315.6406 Q372.6406,315.9375 372,316.0781 Q371.3594,316.2344 370.6563,316.2344 Q368.1563,316.2344 366.8281,314.5938 Q365.5156,312.9375 365.5156,309.8125 Q365.5156,306.6875 366.8281,305.0313 Q368.1563,303.375 370.6563,303.375 Q371.3594,303.375 372,303.5313 Q372.6563,303.6875 373.2188,303.9844 L373.2188,306.7031 Q372.5938,306.125 372,305.8594 Q371.4063,305.5781 370.7813,305.5781 Q369.4375,305.5781 368.75,306.6563 Q368.0625,307.7188 368.0625,309.8125 Q368.0625,311.9063 368.75,312.9844 Q369.4375,314.0469 370.7813,314.0469 Q371.4063,314.0469 372,313.7813 Q372.5938,313.5 373.2188,312.9219 L373.2188,315.6406 Z " fill="#000000"/><text fill="#000000" font-family="sans-serif" font-size="14" lengthAdjust="spacing" textLength="133" x="390.75" y="314.8467">PortfolioCouverture</text><line style="stroke:#181818;stroke-width:0.5;" x1="227.5" x2="654.5" y1="326" y2="326"/><ellipse cx="237.5" cy="339.6484" fill="none" rx="3" ry="3" style="stroke:#038048;stroke-width:1.0;"/><text fill="#000000" font-family="sans-serif" font-size="14" lengthAdjust="spacing" textLength="166" x="246.5" y="342.9951">Compositions : double[]</text><ellipse cx="237.5" cy="355.9453" fill="none" rx="3" ry="3" style="stroke:#038048;stroke-width:1.0;"/><text fill="#000000" font-family="sans-serif" font-size="14" lengthAdjust="spacing" textLength="99" x="246.5" y="359.292">Value : double</text><ellipse cx="237.5" cy="372.2422" fill="none" rx="3" ry="3" style="stroke:#038048;stroke-width:1.0;"/><text fill="#000000" font-family="sans-serif" font-size="14" lengthAdjust="spacing" textLength="166" x="246.5" y="375.5889">DateOfValue : DateTime</text><line style="stroke:#181818;stroke-width:0.5;" x1="227.5" x2="654.5" y1="382.8906" y2="382.8906"/><ellipse cx="237.5" cy="396.5391" fill="#84BE84" rx="3" ry="3" style="stroke:#038048;stroke-width:1.0;"/><text fill="#000000" font-family="sans-serif" font-size="14" lengthAdjust="spacing" textLength="380" x="246.5" y="399.8857">void UpdateCompo(DateTime date , PricingResults res)</text><ellipse cx="237.5" cy="412.8359" fill="#84BE84" rx="3" ry="3" style="stroke:#038048;stroke-width:1.0;"/><text fill="#000000" font-family="sans-serif" font-size="14" lengthAdjust="spacing" textLength="308" x="246.5" y="416.1826">double UpdatePortfolioValue(DateTime date)</text><ellipse cx="237.5" cy="429.1328" fill="#84BE84" rx="3" ry="3" style="stroke:#038048;stroke-width:1.0;"/><text fill="#000000" font-family="sans-serif" font-size="14" lengthAdjust="spacing" textLength="403" x="246.5" y="432.4795">double CalCulValueInitiale(DateTime t0 ,PricingResults res)</text></g><!--class DetectRebalacing--><g id="elem_DetectRebalacing"><rect codeLine="31" fill="#F1F1F1" height="64.2969" id="DetectRebalacing" rx="2.5" ry="2.5" style="stroke:#181818;stroke-width:0.5;" width="321" x="1015.5" y="80.5"/><ellipse cx="1110.25" cy="96.5" fill="#ADD1B2" rx="11" ry="11" style="stroke:#181818;stroke-width:1.0;"/><path d="M1113.2188,102.1406 Q1112.6406,102.4375 1112,102.5781 Q1111.3594,102.7344 1110.6563,102.7344 Q1108.1563,102.7344 1106.8281,101.0938 Q1105.5156,99.4375 1105.5156,96.3125 Q1105.5156,93.1875 1106.8281,91.5313 Q1108.1563,89.875 1110.6563,89.875 Q1111.3594,89.875 1112,90.0313 Q1112.6563,90.1875 1113.2188,90.4844 L1113.2188,93.2031 Q1112.5938,92.625 1112,92.3594 Q1111.4063,92.0781 1110.7813,92.0781 Q1109.4375,92.0781 1108.75,93.1563 Q1108.0625,94.2188 1108.0625,96.3125 Q1108.0625,98.4063 1108.75,99.4844 Q1109.4375,100.5469 1110.7813,100.5469 Q1111.4063,100.5469 1112,100.2813 Q1112.5938,100 1113.2188,99.4219 L1113.2188,102.1406 Z " fill="#000000"/><text fill="#000000" font-family="sans-serif" font-size="14" lengthAdjust="spacing" textLength="123" x="1130.75" y="101.3467">DetectRebalacing</text><line style="stroke:#181818;stroke-width:0.5;" x1="1016.5" x2="1335.5" y1="112.5" y2="112.5"/><line style="stroke:#181818;stroke-width:0.5;" x1="1016.5" x2="1335.5" y1="120.5" y2="120.5"/><ellipse cx="1026.5" cy="134.1484" fill="#84BE84" rx="3" ry="3" style="stroke:#038048;stroke-width:1.0;"/><text fill="#000000" font-family="sans-serif" font-size="14" lengthAdjust="spacing" textLength="295" x="1035.5" y="137.4951">abstract bool isRebalacing(DateTime Date)</text></g><!--class DetectRebalacingRegular--><g id="elem_DetectRebalacingRegular"><rect codeLine="35" fill="#F1F1F1" height="113.1875" id="DetectRebalacingRegular" rx="2.5" ry="2.5" style="stroke:#181818;stroke-width:0.5;" width="449" x="690.5" y="310.5"/><ellipse cx="822.75" cy="326.5" fill="#ADD1B2" rx="11" ry="11" style="stroke:#181818;stroke-width:1.0;"/><path d="M825.7188,332.1406 Q825.1406,332.4375 824.5,332.5781 Q823.8594,332.7344 823.1563,332.7344 Q820.6563,332.7344 819.3281,331.0938 Q818.0156,329.4375 818.0156,326.3125 Q818.0156,323.1875 819.3281,321.5313 Q820.6563,319.875 823.1563,319.875 Q823.8594,319.875 824.5,320.0313 Q825.1563,320.1875 825.7188,320.4844 L825.7188,323.2031 Q825.0938,322.625 824.5,322.3594 Q823.9063,322.0781 823.2813,322.0781 Q821.9375,322.0781 821.25,323.1563 Q820.5625,324.2188 820.5625,326.3125 Q820.5625,328.4063 821.25,329.4844 Q821.9375,330.5469 823.2813,330.5469 Q823.9063,330.5469 824.5,330.2813 Q825.0938,330 825.7188,329.4219 L825.7188,332.1406 Z " fill="#000000"/><text fill="#000000" font-family="sans-serif" font-size="14" lengthAdjust="spacing" textLength="176" x="843.25" y="331.3467">DetectRebalacingRegular</text><line style="stroke:#181818;stroke-width:0.5;" x1="691.5" x2="1138.5" y1="342.5" y2="342.5"/><ellipse cx="701.5" cy="356.1484" fill="none" rx="3" ry="3" style="stroke:#038048;stroke-width:1.0;"/><text fill="#000000" font-family="sans-serif" font-size="14" lengthAdjust="spacing" textLength="90" x="710.5" y="359.4951">int count = 0</text><ellipse cx="701.5" cy="372.4453" fill="none" rx="3" ry="3" style="stroke:#038048;stroke-width:1.0;"/><text fill="#000000" font-family="sans-serif" font-size="14" lengthAdjust="spacing" textLength="117" x="710.5" y="375.792">const int periode</text><line style="stroke:#181818;stroke-width:0.5;" x1="691.5" x2="1138.5" y1="383.0938" y2="383.0938"/><ellipse cx="701.5" cy="396.7422" fill="#84BE84" rx="3" ry="3" style="stroke:#038048;stroke-width:1.0;"/><text fill="#000000" font-family="sans-serif" font-size="14" lengthAdjust="spacing" textLength="423" x="710.5" y="400.0889">DetectRebalacingRegular(DateTime Date  , const int periode)</text><ellipse cx="701.5" cy="413.0391" fill="#84BE84" rx="3" ry="3" style="stroke:#038048;stroke-width:1.0;"/><text fill="#000000" font-family="sans-serif" font-size="14" lengthAdjust="spacing" textLength="300" x="710.5" y="416.3857">override bool isRebalacing((DateTime Date)</text></g><!--class DetectRebalacingWeekly--><g id="elem_DetectRebalacingWeekly"><rect codeLine="42" fill="#F1F1F1" height="96.8906" id="DetectRebalacingWeekly" rx="2.5" ry="2.5" style="stroke:#181818;stroke-width:0.5;" width="526" x="1175" y="318.5"/><ellipse cx="1347.75" cy="334.5" fill="#ADD1B2" rx="11" ry="11" style="stroke:#181818;stroke-width:1.0;"/><path d="M1350.7188,340.1406 Q1350.1406,340.4375 1349.5,340.5781 Q1348.8594,340.7344 1348.1563,340.7344 Q1345.6563,340.7344 1344.3281,339.0938 Q1343.0156,337.4375 1343.0156,334.3125 Q1343.0156,331.1875 1344.3281,329.5313 Q1345.6563,327.875 1348.1563,327.875 Q1348.8594,327.875 1349.5,328.0313 Q1350.1563,328.1875 1350.7188,328.4844 L1350.7188,331.2031 Q1350.0938,330.625 1349.5,330.3594 Q1348.9063,330.0781 1348.2813,330.0781 Q1346.9375,330.0781 1346.25,331.1563 Q1345.5625,332.2188 1345.5625,334.3125 Q1345.5625,336.4063 1346.25,337.4844 Q1346.9375,338.5469 1348.2813,338.5469 Q1348.9063,338.5469 1349.5,338.2813 Q1350.0938,338 1350.7188,337.4219 L1350.7188,340.1406 Z " fill="#000000"/><text fill="#000000" font-family="sans-serif" font-size="14" lengthAdjust="spacing" textLength="172" x="1368.25" y="339.3467">DetectRebalacingWeekly</text><line style="stroke:#181818;stroke-width:0.5;" x1="1176" x2="1700" y1="350.5" y2="350.5"/><ellipse cx="1186" cy="364.1484" fill="none" rx="3" ry="3" style="stroke:#038048;stroke-width:1.0;"/><text fill="#000000" font-family="sans-serif" font-size="14" lengthAdjust="spacing" textLength="202" x="1195" y="367.4951">DateOfDay DateOfRebalacing</text><line style="stroke:#181818;stroke-width:0.5;" x1="1176" x2="1700" y1="374.7969" y2="374.7969"/><ellipse cx="1186" cy="388.4453" fill="#84BE84" rx="3" ry="3" style="stroke:#038048;stroke-width:1.0;"/><text fill="#000000" font-family="sans-serif" font-size="14" lengthAdjust="spacing" textLength="500" x="1195" y="391.792">DetectRebalacingWeekly(DateTime Date , DateOfDay DateOfRebalacing)</text><ellipse cx="1186" cy="404.7422" fill="#84BE84" rx="3" ry="3" style="stroke:#038048;stroke-width:1.0;"/><text fill="#000000" font-family="sans-serif" font-size="14" lengthAdjust="spacing" textLength="300" x="1195" y="408.0889">override bool isRebalacing((DateTime Date)</text></g><!--class ShareValue--><g id="elem_ShareValue"><rect codeLine="68" fill="#F1F1F1" height="96.8906" id="ShareValue" rx="2.5" ry="2.5" style="stroke:#181818;stroke-width:0.5;" width="188" x="1736" y="318.5"/><ellipse cx="1786.75" cy="334.5" fill="#ADD1B2" rx="11" ry="11" style="stroke:#181818;stroke-width:1.0;"/><path d="M1789.7188,340.1406 Q1789.1406,340.4375 1788.5,340.5781 Q1787.8594,340.7344 1787.1563,340.7344 Q1784.6563,340.7344 1783.3281,339.0938 Q1782.0156,337.4375 1782.0156,334.3125 Q1782.0156,331.1875 1783.3281,329.5313 Q1784.6563,327.875 1787.1563,327.875 Q1787.8594,327.875 1788.5,328.0313 Q1789.1563,328.1875 1789.7188,328.4844 L1789.7188,331.2031 Q1789.0938,330.625 1788.5,330.3594 Q1787.9063,330.0781 1787.2813,330.0781 Q1785.9375,330.0781 1785.25,331.1563 Q1784.5625,332.2188 1784.5625,334.3125 Q1784.5625,336.4063 1785.25,337.4844 Q1785.9375,338.5469 1787.2813,338.5469 Q1787.9063,338.5469 1788.5,338.2813 Q1789.0938,338 1789.7188,337.4219 L1789.7188,340.1406 Z " fill="#000000"/><text fill="#000000" font-family="sans-serif" font-size="14" lengthAdjust="spacing" textLength="78" x="1807.25" y="339.3467">ShareValue</text><line style="stroke:#181818;stroke-width:0.5;" x1="1737" x2="1923" y1="350.5" y2="350.5"/><ellipse cx="1747" cy="364.1484" fill="none" rx="3" ry="3" style="stroke:#038048;stroke-width:1.0;"/><text fill="#000000" font-family="sans-serif" font-size="14" lengthAdjust="spacing" textLength="65" x="1756" y="367.4951">Id : String</text><ellipse cx="1747" cy="380.4453" fill="none" rx="3" ry="3" style="stroke:#038048;stroke-width:1.0;"/><text fill="#000000" font-family="sans-serif" font-size="14" lengthAdjust="spacing" textLength="162" x="1756" y="383.792">DateOfPrice : DateTime</text><ellipse cx="1747" cy="396.7422" fill="none" rx="3" ry="3" style="stroke:#038048;stroke-width:1.0;"/><text fill="#000000" font-family="sans-serif" font-size="14" lengthAdjust="spacing" textLength="99" x="1756" y="400.0889">Value : double</text><line style="stroke:#181818;stroke-width:0.5;" x1="1737" x2="1923" y1="407.3906" y2="407.3906"/></g><!--class MarketData--><g id="elem_MarketData"><rect codeLine="75" fill="#F1F1F1" height="96.8906" id="MarketData" rx="2.5" ry="2.5" style="stroke:#181818;stroke-width:0.5;" width="357" x="1651.5" y="64"/><ellipse cx="1786.25" cy="80" fill="#ADD1B2" rx="11" ry="11" style="stroke:#181818;stroke-width:1.0;"/><path d="M1789.2188,85.6406 Q1788.6406,85.9375 1788,86.0781 Q1787.3594,86.2344 1786.6563,86.2344 Q1784.1563,86.2344 1782.8281,84.5938 Q1781.5156,82.9375 1781.5156,79.8125 Q1781.5156,76.6875 1782.8281,75.0313 Q1784.1563,73.375 1786.6563,73.375 Q1787.3594,73.375 1788,73.5313 Q1788.6563,73.6875 1789.2188,73.9844 L1789.2188,76.7031 Q1788.5938,76.125 1788,75.8594 Q1787.4063,75.5781 1786.7813,75.5781 Q1785.4375,75.5781 1784.75,76.6563 Q1784.0625,77.7188 1784.0625,79.8125 Q1784.0625,81.9063 1784.75,82.9844 Q1785.4375,84.0469 1786.7813,84.0469 Q1787.4063,84.0469 1788,83.7813 Q1788.5938,83.5 1789.2188,82.9219 L1789.2188,85.6406 Z " fill="#000000"/><text fill="#000000" font-family="sans-serif" font-size="14" lengthAdjust="spacing" textLength="79" x="1806.75" y="84.8467">MarketData</text><line style="stroke:#181818;stroke-width:0.5;" x1="1652.5" x2="2007.5" y1="96" y2="96"/><ellipse cx="1662.5" cy="109.6484" fill="none" rx="3" ry="3" style="stroke:#038048;stroke-width:1.0;"/><text fill="#000000" font-family="sans-serif" font-size="14" lengthAdjust="spacing" textLength="213" x="1671.5" y="112.9951">static data :  List&lt;ShareValue&gt;</text><line style="stroke:#181818;stroke-width:0.5;" x1="1652.5" x2="2007.5" y1="120.2969" y2="120.2969"/><ellipse cx="1662.5" cy="133.9453" fill="#84BE84" rx="3" ry="3" style="stroke:#038048;stroke-width:1.0;"/><text fill="#000000" font-family="sans-serif" font-size="14" lengthAdjust="spacing" textLength="331" x="1671.5" y="137.292">static double[] filterPricesInDate(DateTime date)</text><ellipse cx="1662.5" cy="150.2422" fill="#84BE84" rx="3" ry="3" style="stroke:#038048;stroke-width:1.0;"/><text fill="#000000" font-family="sans-serif" font-size="14" lengthAdjust="spacing" textLength="303" x="1671.5" y="153.5889">static void AddShareValue(ShareValue ligne)</text></g><!--class IConvertisseurFile--><g id="elem_IConvertisseurFile"><rect codeLine="85" fill="#F1F1F1" height="64.2969" id="IConvertisseurFile" rx="2.5" ry="2.5" style="stroke:#181818;stroke-width:0.5;" width="180" x="2341" y="80.5"/><ellipse cx="2367.7" cy="96.5" fill="#ADD1B2" rx="11" ry="11" style="stroke:#181818;stroke-width:1.0;"/><path d="M2370.6688,102.1406 Q2370.0906,102.4375 2369.45,102.5781 Q2368.8094,102.7344 2368.1063,102.7344 Q2365.6063,102.7344 2364.2781,101.0938 Q2362.9656,99.4375 2362.9656,96.3125 Q2362.9656,93.1875 2364.2781,91.5313 Q2365.6063,89.875 2368.1063,89.875 Q2368.8094,89.875 2369.45,90.0313 Q2370.1063,90.1875 2370.6688,90.4844 L2370.6688,93.2031 Q2370.0438,92.625 2369.45,92.3594 Q2368.8563,92.0781 2368.2313,92.0781 Q2366.8875,92.0781 2366.2,93.1563 Q2365.5125,94.2188 2365.5125,96.3125 Q2365.5125,98.4063 2366.2,99.4844 Q2366.8875,100.5469 2368.2313,100.5469 Q2368.8563,100.5469 2369.45,100.2813 Q2370.0438,100 2370.6688,99.4219 L2370.6688,102.1406 Z " fill="#000000"/><text fill="#000000" font-family="sans-serif" font-size="14" lengthAdjust="spacing" textLength="122" x="2384.3" y="101.3467">IConvertisseurFile</text><line style="stroke:#181818;stroke-width:0.5;" x1="2342" x2="2520" y1="112.5" y2="112.5"/><ellipse cx="2352" cy="126.1484" fill="none" rx="3" ry="3" style="stroke:#038048;stroke-width:1.0;"/><text fill="#000000" font-family="sans-serif" font-size="14" lengthAdjust="spacing" textLength="154" x="2361" y="129.4951">abstract string chemin</text><line style="stroke:#181818;stroke-width:0.5;" x1="2342" x2="2520" y1="136.7969" y2="136.7969"/></g><!--class CSVToListShareValue--><g id="elem_CSVToListShareValue"><rect codeLine="95" fill="#F1F1F1" height="80.5938" id="CSVToListShareValue" rx="2.5" ry="2.5" style="stroke:#181818;stroke-width:0.5;" width="277" x="1959.5" y="326.5"/><ellipse cx="2020.25" cy="342.5" fill="#ADD1B2" rx="11" ry="11" style="stroke:#181818;stroke-width:1.0;"/><path d="M2023.2188,348.1406 Q2022.6406,348.4375 2022,348.5781 Q2021.3594,348.7344 2020.6563,348.7344 Q2018.1563,348.7344 2016.8281,347.0938 Q2015.5156,345.4375 2015.5156,342.3125 Q2015.5156,339.1875 2016.8281,337.5313 Q2018.1563,335.875 2020.6563,335.875 Q2021.3594,335.875 2022,336.0313 Q2022.6563,336.1875 2023.2188,336.4844 L2023.2188,339.2031 Q2022.5938,338.625 2022,338.3594 Q2021.4063,338.0781 2020.7813,338.0781 Q2019.4375,338.0781 2018.75,339.1563 Q2018.0625,340.2188 2018.0625,342.3125 Q2018.0625,344.4063 2018.75,345.4844 Q2019.4375,346.5469 2020.7813,346.5469 Q2021.4063,346.5469 2022,346.2813 Q2022.5938,346 2023.2188,345.4219 L2023.2188,348.1406 Z " fill="#000000"/><text fill="#000000" font-family="sans-serif" font-size="14" lengthAdjust="spacing" textLength="147" x="2040.75" y="347.3467">CSVToListShareValue</text><line style="stroke:#181818;stroke-width:0.5;" x1="1960.5" x2="2235.5" y1="358.5" y2="358.5"/><ellipse cx="1970.5" cy="372.1484" fill="none" rx="3" ry="3" style="stroke:#038048;stroke-width:1.0;"/><text fill="#000000" font-family="sans-serif" font-size="14" lengthAdjust="spacing" textLength="180" x="1979.5" y="375.4951">List&lt;ShareValue&gt; listData</text><line style="stroke:#181818;stroke-width:0.5;" x1="1960.5" x2="2235.5" y1="382.7969" y2="382.7969"/><ellipse cx="1970.5" cy="396.4453" fill="#84BE84" rx="3" ry="3" style="stroke:#038048;stroke-width:1.0;"/><text fill="#000000" font-family="sans-serif" font-size="14" lengthAdjust="spacing" textLength="251" x="1979.5" y="399.792">CSVToListShareValue(string chemin)</text></g><!--class JSONToTestParameters--><g id="elem_JSONToTestParameters"><rect codeLine="100" fill="#F1F1F1" height="178.375" id="JSONToTestParameters" rx="2.5" ry="2.5" style="stroke:#181818;stroke-width:0.5;" width="318" x="2272" y="278"/><ellipse cx="2346.25" cy="294" fill="#ADD1B2" rx="11" ry="11" style="stroke:#181818;stroke-width:1.0;"/><path d="M2349.2188,299.6406 Q2348.6406,299.9375 2348,300.0781 Q2347.3594,300.2344 2346.6563,300.2344 Q2344.1563,300.2344 2342.8281,298.5938 Q2341.5156,296.9375 2341.5156,293.8125 Q2341.5156,290.6875 2342.8281,289.0313 Q2344.1563,287.375 2346.6563,287.375 Q2347.3594,287.375 2348,287.5313 Q2348.6563,287.6875 2349.2188,287.9844 L2349.2188,290.7031 Q2348.5938,290.125 2348,289.8594 Q2347.4063,289.5781 2346.7813,289.5781 Q2345.4375,289.5781 2344.75,290.6563 Q2344.0625,291.7188 2344.0625,293.8125 Q2344.0625,295.9063 2344.75,296.9844 Q2345.4375,298.0469 2346.7813,298.0469 Q2347.4063,298.0469 2348,297.7813 Q2348.5938,297.5 2349.2188,296.9219 L2349.2188,299.6406 Z " fill="#000000"/><text fill="#000000" font-family="sans-serif" font-size="14" lengthAdjust="spacing" textLength="161" x="2366.75" y="298.8467">JSONToTestParameters</text><line style="stroke:#181818;stroke-width:0.5;" x1="2273" x2="2589" y1="310" y2="310"/><ellipse cx="2283" cy="323.6484" fill="none" rx="3" ry="3" style="stroke:#038048;stroke-width:1.0;"/><text fill="#000000" font-family="sans-serif" font-size="14" lengthAdjust="spacing" textLength="268" x="2292" y="326.9951">BasketTestParameters testParameters</text><rect fill="none" height="6" style="stroke:#C82930;stroke-width:1.0;" width="6" x="2280" y="336.9453"/><text fill="#000000" font-family="sans-serif" font-size="14" lengthAdjust="spacing" textLength="125" x="2292" y="343.292">JSONString : string</text><rect fill="none" height="6" style="stroke:#C82930;stroke-width:1.0;" width="6" x="2280" y="353.2422"/><text fill="#000000" font-family="sans-serif" font-size="14" lengthAdjust="spacing" textLength="281" x="2292" y="359.5889">JSONStringRebalacingDescription : String</text><rect fill="none" height="6" style="stroke:#C82930;stroke-width:1.0;" width="6" x="2280" y="369.5391"/><text fill="#000000" font-family="sans-serif" font-size="14" lengthAdjust="spacing" textLength="224" x="2292" y="375.8857">JSONStringBasketParams : string</text><line style="stroke:#181818;stroke-width:0.5;" x1="2273" x2="2589" y1="383.1875" y2="383.1875"/><ellipse cx="2283" cy="396.8359" fill="#84BE84" rx="3" ry="3" style="stroke:#038048;stroke-width:1.0;"/><text fill="#000000" font-family="sans-serif" font-size="14" lengthAdjust="spacing" textLength="265" x="2292" y="400.1826">JSONToTestParameters(string chemin)</text><rect fill="#F24D5C" height="6" style="stroke:#C82930;stroke-width:1.0;" width="6" x="2280" y="410.1328"/><text fill="#000000" font-family="sans-serif" font-size="14" lengthAdjust="spacing" textLength="292" x="2292" y="416.4795">ConvertJSONStringRebalacingDescription()</text><rect fill="#F24D5C" height="6" style="stroke:#C82930;stroke-width:1.0;" width="6" x="2280" y="426.4297"/><text fill="#000000" font-family="sans-serif" font-size="14" lengthAdjust="spacing" textLength="236" x="2292" y="432.7764">ConvertJSONStringBasketParams()</text><ellipse cx="2283" cy="445.7266" fill="#84BE84" rx="3" ry="3" style="stroke:#038048;stroke-width:1.0;"/><text fill="#000000" font-family="sans-serif" font-size="14" lengthAdjust="spacing" textLength="234" x="2292" y="449.0732">ConverteJSONToTestParameters()</text></g><!--class ListOuputToJSON--><g id="elem_ListOuputToJSON"><rect codeLine="112" fill="#F1F1F1" height="80.5938" id="ListOuputToJSON" rx="2.5" ry="2.5" style="stroke:#181818;stroke-width:0.5;" width="318" x="2625" y="326.5"/><ellipse cx="2721.25" cy="342.5" fill="#ADD1B2" rx="11" ry="11" style="stroke:#181818;stroke-width:1.0;"/><path d="M2724.2188,348.1406 Q2723.6406,348.4375 2723,348.5781 Q2722.3594,348.7344 2721.6563,348.7344 Q2719.1563,348.7344 2717.8281,347.0938 Q2716.5156,345.4375 2716.5156,342.3125 Q2716.5156,339.1875 2717.8281,337.5313 Q2719.1563,335.875 2721.6563,335.875 Q2722.3594,335.875 2723,336.0313 Q2723.6563,336.1875 2724.2188,336.4844 L2724.2188,339.2031 Q2723.5938,338.625 2723,338.3594 Q2722.4063,338.0781 2721.7813,338.0781 Q2720.4375,338.0781 2719.75,339.1563 Q2719.0625,340.2188 2719.0625,342.3125 Q2719.0625,344.4063 2719.75,345.4844 Q2720.4375,346.5469 2721.7813,346.5469 Q2722.4063,346.5469 2723,346.2813 Q2723.5938,346 2724.2188,345.4219 L2724.2188,348.1406 Z " fill="#000000"/><text fill="#000000" font-family="sans-serif" font-size="14" lengthAdjust="spacing" textLength="117" x="2741.75" y="347.3467">ListOuputToJSON</text><line style="stroke:#181818;stroke-width:0.5;" x1="2626" x2="2942" y1="358.5" y2="358.5"/><ellipse cx="2636" cy="372.1484" fill="none" rx="3" ry="3" style="stroke:#038048;stroke-width:1.0;"/><text fill="#000000" font-family="sans-serif" font-size="14" lengthAdjust="spacing" textLength="292" x="2645" y="375.4951">List&lt;OutputData&gt;  historiquesOutputData</text><line style="stroke:#181818;stroke-width:0.5;" x1="2626" x2="2942" y1="382.7969" y2="382.7969"/><ellipse cx="2636" cy="396.4453" fill="#84BE84" rx="3" ry="3" style="stroke:#038048;stroke-width:1.0;"/><text fill="#000000" font-family="sans-serif" font-size="14" lengthAdjust="spacing" textLength="224" x="2645" y="399.792">ListOuputToJSON(chemin , histo)</text></g><!--link AlogSystematicStrategie to OutputData--><g id="link_AlogSystematicStrategie_OutputData"><path codeLine="18" d="M199.21,218.02 C181.94,243.53 163.84,270.26 147.85,293.87 " fill="none" id="AlogSystematicStrategie-OutputData" style="stroke:#181818;stroke-width:1.0;"/><text fill="#000000" font-family="sans-serif" font-size="13" lengthAdjust="spacing" textLength="23" x="128.5266" y="283.0172">1..*</text></g><!--link AlogSystematicStrategie to PortfolioCouverture--><g id="link_AlogSystematicStrategie_PortfolioCouverture"><path codeLine="19" d="M340.79,218.02 C358.06,243.53 376.16,270.26 392.15,293.87 " fill="none" id="AlogSystematicStrategie-PortfolioCouverture" style="stroke:#181818;stroke-width:1.0;"/></g><!--reverse link DetectRebalacing to DetectRebalacingRegular--><g id="link_DetectRebalacing_DetectRebalacingRegular"><path codeLine="48" d="M1130.7947,157.2271 C1088.1147,198.5271 1025.07,259.52 972.45,310.42 " fill="none" id="DetectRebalacing-backto-DetectRebalacingRegular" style="stroke:#181818;stroke-width:1.0;"/><polygon fill="none" points="1143.73,144.71,1126.6223,152.9153,1134.967,161.5389,1143.73,144.71" style="stroke:#181818;stroke-width:1.0;"/></g><!--reverse link DetectRebalacing to DetectRebalacingWeekly--><g id="link_DetectRebalacing_DetectRebalacingWeekly"><path codeLine="49" d="M1221.3488,157.2027 C1266.3888,200.6227 1335.4,267.12 1388.23,318.04 " fill="none" id="DetectRebalacing-backto-DetectRebalacingWeekly" style="stroke:#181818;stroke-width:1.0;"/><polygon fill="none" points="1208.39,144.71,1217.1846,161.5223,1225.5131,152.8831,1208.39,144.71" style="stroke:#181818;stroke-width:1.0;"/></g><!--link MarketData to ShareValue--><g id="link_MarketData_ShareValue"><path codeLine="82" d="M1830,161.29 C1830,206.33 1830,273.43 1830,318.41 " fill="none" id="MarketData-ShareValue" style="stroke:#181818;stroke-width:1.0;"/><text fill="#000000" font-family="sans-serif" font-size="13" lengthAdjust="spacing" textLength="23" x="1805.3828" y="307.6063">1..*</text></g><!--reverse link IConvertisseurFile to CSVToListShareValue--><g id="link_IConvertisseurFile_CSVToListShareValue"><path codeLine="90" d="M2375.488,155.5869 C2315.018,201.4469 2216.54,276.11 2150.29,326.35 " fill="none" id="IConvertisseurFile-backto-CSVToListShareValue" style="stroke:#181818;stroke-width:1.0;"/><polygon fill="none" points="2389.83,144.71,2371.8624,150.8062,2379.1136,160.3676,2389.83,144.71" style="stroke:#181818;stroke-width:1.0;"/></g><!--reverse link IConvertisseurFile to JSONToTestParameters--><g id="link_IConvertisseurFile_JSONToTestParameters"><path codeLine="91" d="M2431,162.71 C2431,195.83 2431,231.66 2431,277.93 " fill="none" id="IConvertisseurFile-backto-JSONToTestParameters" style="stroke:#181818;stroke-width:1.0;"/><polygon fill="none" points="2431,144.71,2425,162.71,2437,162.71,2431,144.71" style="stroke:#181818;stroke-width:1.0;"/></g><!--reverse link IConvertisseurFile to ListOuputToJSON--><g id="link_IConvertisseurFile_ListOuputToJSON"><path codeLine="92" d="M2489.2792,155.1835 C2553.3792,201.0435 2658.34,276.11 2728.57,326.35 " fill="none" id="IConvertisseurFile-backto-ListOuputToJSON" style="stroke:#181818;stroke-width:1.0;"/><polygon fill="none" points="2474.64,144.71,2485.788,160.0632,2492.7703,150.3038,2474.64,144.71" style="stroke:#181818;stroke-width:1.0;"/></g><!--SRC=[dLPDSzCm4BtxL-nmQGf9sdBCbCwK18OmG4eJog7JWs8hgQXY1Nraw9J-TrOVjcN7BeLBOacxJs_VhbPAEL4A0CwvMC_lbQORebawrv9ekcOK7X9SX5VmbgWxgXTKwGiYoOPgAXNesZ1OJj1pmJOKz76OkP0ifHAs_g-O55Al1EDCm2WCy7iip8vARIGjq10wrPTqIJX9MRw6h3aH36-PqaAoduQgcT5Rev47GUXFE7zQpPn1uO0nellr3QItTCDo1KT7S8mEPL1g-4E97FfmCihGSvYg7GvU3q4uDBUQ1B0E-Ne5TX_LE0osEy4oUFUBfWPLwtAi6PzdsK9yA0FiMK6H-oLLXci5ajeDCc6MdCAES4DnMAO1kLCuJ9B79EbAyc00Bqw6mvSle1BgAUEsT2MfgwIMfRA6ncAp5Off9b2HKI1yVHDMhnpnOXgYQfgjYhKog5YTRriReWFlrQFkmxvIXR1X6-zSidORrL4Q3cF2nuOxkscEiH0UsUjZwBTjYTe7VVRgkH27B1LAd6fO2i61gSgaWfyuEezTM9TqRJYH9IJBDQJ2uEyRhEmmcQBusYrjgMGYgvHkHwll3gZf7aAXaC24IuQ8-o4yEuRlbDxn-p84d_u9kGzVbM47Q-_V8Dr_0kSG_elzNXvFV-F1wD3mcTQUEvPASW1U7NzYx84vJpLReIm741gE6uzWVaiaTTLOBdqr9DTCs_DYauJpLVb5hV6XsQ_jHxtMFMum2wSLMNDDYcRVd9xhR49tnMA0SVs_ZkocWd5P2rKi9RbfPcDqdRhU4Hn0IqTeTf4gzCz4uWrM2rrfszhiARStXRygAX9d3QiYqXNZsBWT0JNDBO7sXX7yYWvU0VUYG3bRvxwYaeZWO13wSPJU8exfMEIsipAbg97l6QVxFKHvnVpjuy1Rl5mDZkTN2s43ZtRgilqudtrPYFeReDFOOiuC5jj2MB-IVik69Vzc0b0TvI-ZS87i-_PgeKQDfOtiFxzcVCoX_aQ5h7jBrH6UK9LAjhKdjb6uiRtVtZyo8jX0hervCqoF6AJ_2v5UftdCetnn12lQIYCIk97WKjkM5rVxsonAUeGJdapOivsNUxZy0G00]--></g></svg>